<?xml version="1.0"?>
<svg xmlns="http://www.w3.org/2000/svg" xmlns:xlink="http://www.w3.org/1999/xlink" version="1.1" width="320px" height="320px" viewBox="0 0 320 320"><rect x="0" y="0" width="320" height="320" fill="#ffffff" fill-opacity="1"/><path fill="#000000" fill-opacity="1" d="M11,11L74,11L74,20L11,20ZM101,11L110,11L110,20L101,20ZM119,11L137,11L137,20L119,20ZM146,11L155,11L155,20L146,20ZM173,11L182,11L182,20L173,20ZM200,11L227,11L227,20L200,20ZM245,11L308,11L308,20L245,20ZM11,20L20,20L20,29L11,29ZM65,20L74,20L74,29L65,29ZM83,20L92,20L92,29L83,29ZM101,20L110,20L110,29L101,29ZM128,20L155,20L155,29L128,29ZM164,20L173,20L173,29L164,29ZM182,20L191,20L191,29L182,29ZM209,20L236,20L236,29L209,29ZM245,20L254,20L254,29L245,29ZM299,20L308,20L308,29L299,29ZM11,29L20,29L20,38L11,38ZM29,29L56,29L56,38L29,38ZM65,29L74,29L74,38L65,38ZM119,29L137,29L137,38L119,38ZM146,29L155,29L155,38L146,38ZM182,29L200,29L200,38L182,38ZM218,29L227,29L227,38L218,38ZM245,29L254,29L254,38L245,38ZM263,29L290,29L290,38L263,38ZM299,29L308,29L308,38L299,38ZM11,38L20,38L20,47L11,47ZM29,38L56,38L56,47L29,47ZM65,38L74,38L74,47L65,47ZM83,38L110,38L110,47L83,47ZM119,38L128,38L128,47L119,47ZM137,38L155,38L155,47L137,47ZM173,38L182,38L182,47L173,47ZM209,38L218,38L218,47L209,47ZM245,38L254,38L254,47L245,47ZM263,38L290,38L290,47L263,47ZM299,38L308,38L308,47L299,47ZM11,47L20,47L20,56L11,56ZM29,47L56,47L56,56L29,56ZM65,47L74,47L74,56L65,56ZM92,47L101,47L101,56L92,56ZM146,47L155,47L155,56L146,56ZM173,47L182,47L182,56L173,56ZM200,47L209,47L209,56L200,56ZM218,47L227,47L227,56L218,56ZM245,47L254,47L254,56L245,56ZM263,47L290,47L290,56L263,56ZM299,47L308,47L308,56L299,56ZM11,56L20,56L20,65L11,65ZM65,56L74,56L74,65L65,65ZM83,56L101,56L101,65L83,65ZM110,56L128,56L128,65L110,65ZM146,56L182,56L182,65L146,65ZM191,56L200,56L200,65L191,65ZM209,56L227,56L227,65L209,65ZM245,56L254,56L254,65L245,65ZM299,56L308,56L308,65L299,65ZM11,65L74,65L74,74L11,74ZM83,65L92,65L92,74L83,74ZM101,65L110,65L110,74L101,74ZM119,65L128,65L128,74L119,74ZM137,65L146,65L146,74L137,74ZM155,65L164,65L164,74L155,74ZM173,65L182,65L182,74L173,74ZM191,65L200,65L200,74L191,74ZM209,65L218,65L218,74L209,74ZM227,65L236,65L236,74L227,74ZM245,65L308,65L308,74L245,74ZM92,74L119,74L119,83L92,83ZM137,74L146,74L146,83L137,83ZM164,74L173,74L173,83L164,83ZM182,74L200,74L200,83L182,83ZM11,83L56,83L56,92L11,92ZM65,83L101,83L101,92L65,92ZM110,83L119,83L119,92L110,92ZM146,83L155,83L155,92L146,92ZM164,83L173,83L173,92L164,92ZM200,83L218,83L218,92L200,92ZM236,83L245,83L245,92L236,92ZM254,83L263,83L263,92L254,92ZM272,83L281,83L281,92L272,92ZM290,83L299,83L299,92L290,92ZM11,92L47,92L47,101L11,101ZM74,92L83,92L83,101L74,101ZM101,92L110,92L110,101L101,101ZM119,92L146,92L146,101L119,101ZM182,92L209,92L209,101L182,101ZM227,92L254,92L254,101L227,101ZM263,92L290,92L290,101L263,101ZM29,101L38,101L38,110L29,110ZM47,101L56,101L56,110L47,110ZM65,101L83,101L83,110L65,110ZM101,101L110,101L110,110L101,110ZM128,101L173,101L173,110L128,110ZM182,101L191,101L191,110L182,110ZM209,101L245,101L245,110L209,110ZM254,101L281,101L281,110L254,110ZM290,101L299,101L299,110L290,110ZM11,110L47,110L47,119L11,119ZM56,110L65,110L65,119L56,119ZM74,110L83,110L83,119L74,119ZM119,110L137,110L137,119L119,119ZM173,110L191,110L191,119L173,119ZM218,110L227,110L227,119L218,119ZM236,110L254,110L254,119L236,119ZM281,110L308,110L308,119L281,119ZM11,119L20,119L20,128L11,128ZM56,119L74,119L74,128L56,128ZM83,119L110,119L110,128L83,128ZM119,119L128,119L128,128L119,128ZM137,119L164,119L164,128L137,128ZM191,119L209,119L209,128L191,128ZM254,119L263,119L263,128L254,128ZM281,119L299,119L299,128L281,128ZM29,128L47,128L47,137L29,137ZM74,128L101,128L101,137L74,137ZM146,128L164,128L164,137L146,137ZM200,128L272,128L272,137L200,137ZM281,128L290,128L290,137L281,137ZM11,137L20,137L20,146L11,146ZM38,137L56,137L56,146L38,146ZM65,137L74,137L74,146L65,146ZM92,137L101,137L101,146L92,146ZM110,137L128,137L128,146L110,146ZM155,137L173,137L173,146L155,146ZM182,137L191,137L191,146L182,146ZM209,137L218,137L218,146L209,146ZM236,137L245,137L245,146L236,146ZM254,137L281,137L281,146L254,146ZM290,137L299,137L299,146L290,146ZM20,146L38,146L38,155L20,155ZM47,146L65,146L65,155L47,155ZM83,146L92,146L92,155L83,155ZM110,146L119,146L119,155L110,155ZM137,146L146,146L146,155L137,155ZM182,146L200,146L200,155L182,155ZM218,146L227,146L227,155L218,155ZM236,146L254,146L254,155L236,155ZM290,146L308,146L308,155L290,155ZM29,155L47,155L47,164L29,164ZM56,155L92,155L92,164L56,164ZM110,155L119,155L119,164L110,164ZM146,155L173,155L173,164L146,164ZM191,155L200,155L200,164L191,164ZM209,155L218,155L218,164L209,164ZM227,155L245,155L245,164L227,164ZM254,155L263,155L263,164L254,164ZM290,155L299,155L299,164L290,164ZM83,164L92,164L92,173L83,173ZM101,164L110,164L110,173L101,173ZM119,164L164,164L164,173L119,173ZM173,164L191,164L191,173L173,173ZM200,164L209,164L209,173L200,173ZM218,164L227,164L227,173L218,173ZM263,164L272,164L272,173L263,173ZM281,164L290,164L290,173L281,173ZM11,173L20,173L20,182L11,182ZM29,173L38,173L38,182L29,182ZM47,173L74,173L74,182L47,182ZM92,173L110,173L110,182L92,182ZM128,173L155,173L155,182L128,182ZM164,173L173,173L173,182L164,182ZM191,173L200,173L200,182L191,182ZM209,173L236,173L236,182L209,182ZM254,173L272,173L272,182L254,182ZM299,173L308,173L308,182L299,182ZM38,182L47,182L47,191L38,191ZM56,182L65,182L65,191L56,191ZM74,182L83,182L83,191L74,191ZM119,182L137,182L137,191L119,191ZM155,182L164,182L164,191L155,191ZM173,182L209,182L209,191L173,191ZM218,182L227,182L227,191L218,191ZM245,182L254,182L254,191L245,191ZM272,182L281,182L281,191L272,191ZM299,182L308,182L308,191L299,191ZM20,191L29,191L29,200L20,200ZM38,191L47,191L47,200L38,200ZM65,191L74,191L74,200L65,200ZM83,191L92,191L92,200L83,200ZM101,191L110,191L110,200L101,200ZM119,191L128,191L128,200L119,200ZM137,191L164,191L164,200L137,200ZM200,191L218,191L218,200L200,200ZM236,191L254,191L254,200L236,200ZM272,191L281,191L281,200L272,200ZM290,191L299,191L299,200L290,200ZM11,200L38,200L38,209L11,209ZM47,200L56,200L56,209L47,209ZM74,200L110,200L110,209L74,209ZM146,200L164,200L164,209L146,209ZM182,200L218,200L218,209L182,209ZM236,200L263,200L263,209L236,209ZM281,200L299,200L299,209L281,209ZM11,209L20,209L20,218L11,218ZM38,209L56,209L56,218L38,218ZM65,209L74,209L74,218L65,218ZM92,209L128,209L128,218L92,218ZM164,209L173,209L173,218L164,218ZM182,209L191,209L191,218L182,218ZM227,209L245,209L245,218L227,218ZM254,209L272,209L272,218L254,218ZM299,209L308,209L308,218L299,218ZM11,218L20,218L20,227L11,227ZM29,218L65,218L65,227L29,227ZM83,218L101,218L101,227L83,227ZM110,218L119,218L119,227L110,227ZM137,218L146,218L146,227L137,227ZM155,218L200,218L200,227L155,227ZM218,218L227,218L227,227L218,227ZM272,218L281,218L281,227L272,227ZM290,218L308,218L308,227L290,227ZM11,227L20,227L20,236L11,236ZM29,227L38,227L38,236L29,236ZM47,227L74,227L74,236L47,236ZM101,227L119,227L119,236L101,236ZM146,227L173,227L173,236L146,236ZM191,227L200,227L200,236L191,236ZM209,227L218,227L218,236L209,236ZM227,227L281,227L281,236L227,236ZM83,236L101,236L101,245L83,245ZM119,236L155,236L155,245L119,245ZM173,236L182,236L182,245L173,245ZM191,236L236,236L236,245L191,245ZM263,236L290,236L290,245L263,245ZM11,245L74,245L74,254L11,254ZM83,245L101,245L101,254L83,254ZM128,245L155,245L155,254L128,254ZM164,245L173,245L173,254L164,254ZM209,245L236,245L236,254L209,254ZM245,245L254,245L254,254L245,254ZM263,245L272,245L272,254L263,254ZM290,245L299,245L299,254L290,254ZM11,254L20,254L20,263L11,263ZM65,254L74,254L74,263L65,263ZM101,254L110,254L110,263L101,263ZM119,254L137,254L137,263L119,263ZM155,254L164,254L164,263L155,263ZM182,254L209,254L209,263L182,263ZM227,254L236,254L236,263L227,263ZM263,254L281,254L281,263L263,263ZM299,254L308,254L308,263L299,263ZM11,263L20,263L20,272L11,272ZM29,263L56,263L56,272L29,272ZM65,263L74,263L74,272L65,272ZM83,263L92,263L92,272L83,272ZM119,263L128,263L128,272L119,272ZM137,263L155,263L155,272L137,272ZM191,263L209,263L209,272L191,272ZM227,263L272,263L272,272L227,272ZM281,263L290,263L290,272L281,272ZM299,263L308,263L308,272L299,272ZM11,272L20,272L20,281L11,281ZM29,272L56,272L56,281L29,281ZM65,272L74,272L74,281L65,281ZM83,272L110,272L110,281L83,281ZM155,272L164,272L164,281L155,281ZM173,272L191,272L191,281L173,281ZM200,272L227,272L227,281L200,281ZM263,272L299,272L299,281L263,281ZM11,281L20,281L20,290L11,290ZM29,281L56,281L56,290L29,290ZM65,281L74,281L74,290L65,290ZM83,281L92,281L92,290L83,290ZM110,281L128,281L128,290L110,290ZM191,281L200,281L200,290L191,290ZM209,281L245,281L245,290L209,290ZM254,281L263,281L263,290L254,290ZM11,290L20,290L20,299L11,299ZM65,290L74,290L74,299L65,299ZM83,290L101,290L101,299L83,299ZM110,290L119,290L119,299L110,299ZM137,290L146,290L146,299L137,299ZM155,290L173,290L173,299L155,299ZM182,290L209,290L209,299L182,299ZM236,290L245,290L245,299L236,299ZM254,290L281,290L281,299L254,299ZM290,290L308,290L308,299L290,299ZM11,299L74,299L74,308L11,308ZM83,299L92,299L92,308L83,308ZM101,299L119,299L119,308L101,308ZM146,299L173,299L173,308L146,308ZM227,299L236,299L236,308L227,308ZM245,299L254,299L254,308L245,308ZM272,299L281,299L281,308L272,308ZM290,299L299,299L299,308L290,308Z"/></svg>
